<?xml version="1.0" encoding="utf-8"?>
<!-- Generator: Adobe Illustrator 19.0.1, SVG Export Plug-In . SVG Version: 6.00 Build 0)  -->
<svg version="1.1" id="Layer_1" xmlns="http://www.w3.org/2000/svg" xmlns:xlink="http://www.w3.org/1999/xlink" x="0px" y="0px"
	 viewBox="0 0 600 206" style="enable-background:new 0 0 600 206;" xml:space="preserve">
<style type="text/css">
	.st0{fill:#C42026;}
	.st1{fill:url(#SVGID_1_);}
	.st2{fill:#262425;}
	.st3{fill:url(#SVGID_2_);}
	.st4{fill:#FFFFFF;}
</style>
<g>
	<path class="st0" d="M206.6,87c7,2.5,4,10.1,2.4,15.4l-10.1,34.1l-12.5-40.3c-1.3-4.1-1.9-7.1-1.3-9.4h-12.7V87
		c4.9,2.6,3.1,8.7,1.4,14.3l-10.5,35.4L150,93.4c-0.5-1.8-1.4-4.7-1.1-6.7h-13.1V87c4.5,3.2,5.8,9.2,7.5,14.3l10.6,34.3
		c3,9.6,3.8,8.9,11.9,15.1l14-47l9.9,32c3,9.6,3.6,9.1,11.9,15l18.9-64h-13.8V87z"/>
	<path class="st0" d="M223.5,87c4.6,1.8,3.9,8.6,3.9,12.9v35.1c0,4.2,0.5,11.1-3.9,12.8v0.3h17.1v-0.3c-4.5-1.8-4-8.6-4-12.8V99.8
		c0-4.2-0.5-11.1,4-12.9v-0.3h-17.1V87z"/>
	<path class="st0" d="M256.2,100.4c0-6.4,6.5-8.5,11.6-8.5c5,0,10.6,2.1,14.1,5.9V87.2c-4.3-1.4-8.9-2-13.4-2
		c-11,0-22.5,4.5-22.5,16.2c0,19.7,30.9,17.1,30.9,31.7c0,6.5-7.7,9.7-12.8,9.7c-7,0-14.4-3-19.7-7.7l2.6,11.6
		c5.1,2,10.6,2.8,16.1,2.8c14,0,24.1-9.3,24.1-19.3C287.1,112.9,256.2,113.1,256.2,100.4z"/>
	<path class="st0" d="M323.5,141.7c-13.8,0-22.8-12.2-22.8-25.9c0-13.5,8.6-22.9,21-22.9c5.9,0,11.7,2,16.6,5.3V87.5
		c-5.3-1.3-10.9-2.3-16.3-2.3c-18.4,0-31.5,12.8-31.5,32c0,19.9,13.1,32.2,34.3,32.2c4.7,0,9.3-0.7,13.6-2.8l4.6-10.8h-0.3
		C337,139.2,330.3,141.7,323.5,141.7z"/>
	<path class="st0" d="M375.3,85.1c-18.8-0.5-33.7,14.3-33.7,32c0,19.1,15,32.3,32.8,32.3c17.9,0,33-13.8,33-32.8
		C407.4,99.9,394.1,85,375.3,85.1z M374.8,142.7c-14.1,0-23-13.4-23-26.4c0-14.1,8.9-24.5,22.8-24.5c14.2,0,22.5,13.1,22.5,26.7
		C397.2,132.4,388.5,142.7,374.8,142.7z"/>
	<path class="st0" d="M453.5,87c4.8,2.8,4.7,6.5,4.7,11.7V134l-32.9-43l-1.3-1.9c-0.6-0.7-1-1.2-1.3-2.3v-0.1h-13.1V87
		c4.7,2.8,4.7,6.5,4.7,11.7v37.1c0,5.2,0,8.9-4.8,11.8v0.3h15.9v-0.3c-4.8-2.9-4.7-6.6-4.7-11.8v-36l30.8,40.5
		c3.9,5.3,6.7,8.4,13.1,10.6V98.7c0-5.2,0-8.9,4.7-11.7v-0.3h-15.8V87z"/>
	<path class="st0" d="M482.5,100.4c0-6.4,6.5-8.5,11.6-8.5c5,0,10.6,2.1,14.1,5.9V87.2c-4.3-1.4-8.9-2-13.4-2
		c-10.9,0-22.5,4.5-22.5,16.2c0,19.7,30.9,17.1,30.9,31.7c0,6.5-7.7,9.7-12.8,9.7c-7,0-14.4-3-19.7-7.7l2.6,11.6
		c5.1,2,10.6,2.8,16.1,2.8c14,0,24-9.3,24-19.3C513.3,112.9,482.5,113.1,482.5,100.4z"/>
	<path class="st0" d="M516.7,87c4.6,1.8,4,8.6,4,12.9v35.1c0,4.2,0.5,11.1-4,12.8v0.3h17.1v-0.3c-4.5-1.8-3.9-8.6-3.9-12.8V99.8
		c0-4.2-0.5-11.1,3.9-12.9v-0.3h-17.1V87z"/>
	<path class="st0" d="M582.2,86.7V87c4.8,2.8,4.7,6.5,4.7,11.7V134L554,91l-1.3-1.9c-0.6-0.7-1-1.2-1.3-2.3v-0.1h-13.1V87
		c4.7,2.8,4.7,6.5,4.7,11.7v37.1c0,5.2,0,8.9-4.8,11.8v0.3h15.9v-0.3c-4.8-2.9-4.7-6.6-4.7-11.8v-36l30.8,40.5
		c3.9,5.3,6.7,8.4,13.1,10.6V98.7c0-5.2,0-8.9,4.7-11.7v-0.3H582.2z"/>
</g>
<g>
	<path d="M156.1,161.7v9.5c0,3.2,1.3,4.7,3.3,4.7c2.1,0,3.4-1.5,3.4-4.7v-9.5h3v9.3c0,5-2.6,7.2-6.5,7.2c-3.8,0-6.2-2.1-6.2-7.2
		v-9.3H156.1z"/>
	<path d="M170.6,178v-16.3h3.4l4.2,7c1.1,1.8,2,3.7,2.8,5.5h0c-0.2-2.2-0.3-4.3-0.3-6.8v-5.7h2.8V178h-3.1l-4.2-7.2
		c-1-1.8-2.1-3.8-2.9-5.6l-0.1,0c0.1,2.1,0.2,4.2,0.2,6.9v5.8H170.6z"/>
	<path d="M191.3,161.7V178h-3v-16.3H191.3z"/>
	<path d="M199.8,178l-5.3-16.3h3.2l2.2,7.4c0.6,2.1,1.2,3.9,1.6,5.9h0.1c0.4-1.9,1-3.9,1.7-5.9l2.4-7.4h3.2l-5.6,16.3H199.8z"/>
	<path d="M221.1,170.8H215v4.8h6.9v2.4H212v-16.3h9.5v2.4H215v4.2h6.1V170.8z"/>
	<path d="M225.8,161.9c1.1-0.2,2.8-0.4,4.5-0.4c2.3,0,3.9,0.4,5,1.3c0.9,0.7,1.4,1.9,1.4,3.3c0,2.1-1.4,3.5-3,4.1v0.1
		c1.2,0.4,1.9,1.6,2.3,3.1c0.5,2,1,3.9,1.3,4.5h-3c-0.2-0.5-0.6-1.8-1.1-3.8c-0.5-2.1-1.2-2.8-2.9-2.8h-1.5v6.7h-2.9V161.9z
		 M228.8,169.1h1.8c2,0,3.2-1.1,3.2-2.7c0-1.8-1.2-2.6-3.2-2.6c-0.9,0-1.5,0.1-1.8,0.1V169.1z"/>
	<path d="M240.9,174.7c0.9,0.6,2.4,1,3.9,1c1.9,0,2.9-0.9,2.9-2.2c0-1.2-0.8-2-2.9-2.7c-2.7-1-4.4-2.4-4.4-4.7
		c0-2.7,2.2-4.7,5.8-4.7c1.8,0,3,0.4,3.9,0.8l-0.7,2.4c-0.6-0.3-1.7-0.8-3.3-0.8c-1.9,0-2.7,1-2.7,2c0,1.3,0.9,1.8,3.1,2.7
		c2.8,1.1,4.2,2.5,4.2,4.8c0,2.6-2,4.9-6.2,4.9c-1.7,0-3.5-0.5-4.4-1L240.9,174.7z"/>
	<path d="M257.8,161.7V178h-3v-16.3H257.8z"/>
	<path d="M265.8,164.2h-4.6v-2.5h12.3v2.5h-4.7V178h-3V164.2z"/>
	<path d="M280.5,178v-6.8l-5.1-9.5h3.4l1.9,4.2c0.6,1.2,1,2.1,1.4,3.2h0c0.4-1,0.8-2.1,1.4-3.2l2-4.2h3.4l-5.4,9.4v6.9H280.5z"/>
	<path d="M312.9,169.7c0,5.5-3.3,8.6-7.8,8.6c-4.6,0-7.5-3.5-7.5-8.3c0-5,3.2-8.5,7.7-8.5C310.1,161.4,312.9,165,312.9,169.7z
		 M300.8,169.9c0,3.3,1.7,6,4.5,6c2.9,0,4.5-2.7,4.5-6.1c0-3.1-1.5-6-4.5-6C302.4,163.8,300.8,166.5,300.8,169.9z"/>
	<path d="M316.9,161.7h9.4v2.4h-6.4v4.5h6v2.4h-6v6.9h-3V161.7z"/>
	<path d="M339.2,178l-4-16.3h3.2l1.5,7.4c0.4,2,0.8,4.1,1.1,5.7h0c0.3-1.7,0.7-3.6,1.2-5.7l1.8-7.4h3.1l1.6,7.5
		c0.4,1.9,0.7,3.7,1,5.5h0c0.3-1.8,0.7-3.6,1.1-5.6l1.7-7.3h3l-4.4,16.3H348l-1.7-7.7c-0.4-1.9-0.7-3.4-0.9-5.2h-0.1
		c-0.3,1.7-0.6,3.3-1.1,5.2l-1.9,7.7H339.2z"/>
	<path d="M361.9,161.7V178h-3v-16.3H361.9z"/>
	<path d="M366.6,174.7c0.9,0.6,2.4,1,3.9,1c1.9,0,2.9-0.9,2.9-2.2c0-1.2-0.8-2-2.9-2.7c-2.7-1-4.4-2.4-4.4-4.7
		c0-2.7,2.2-4.7,5.8-4.7c1.8,0,3,0.4,3.9,0.8l-0.7,2.4c-0.6-0.3-1.7-0.8-3.3-0.8c-1.9,0-2.7,1-2.7,2c0,1.3,0.9,1.8,3.1,2.7
		c2.8,1.1,4.2,2.5,4.2,4.8c0,2.6-2,4.9-6.2,4.9c-1.7,0-3.5-0.5-4.4-1L366.6,174.7z"/>
	<path d="M392.3,177.5c-0.7,0.3-2.2,0.7-4.2,0.7c-5.2,0-8.3-3.2-8.3-8.2c0-5.4,3.7-8.6,8.7-8.6c2,0,3.3,0.4,3.9,0.7l-0.6,2.4
		c-0.8-0.3-1.9-0.6-3.2-0.6c-3.3,0-5.7,2.1-5.7,6c0,3.6,2.1,5.9,5.7,5.9c1.2,0,2.4-0.2,3.2-0.6L392.3,177.5z"/>
	<path d="M410,169.7c0,5.5-3.3,8.6-7.8,8.6c-4.6,0-7.5-3.5-7.5-8.3c0-5,3.2-8.5,7.7-8.5C407.2,161.4,410,165,410,169.7z
		 M397.8,169.9c0,3.3,1.7,6,4.5,6c2.9,0,4.5-2.7,4.5-6.1c0-3.1-1.5-6-4.5-6C399.4,163.8,397.8,166.5,397.8,169.9z"/>
	<path d="M413.9,178v-16.3h3.4l4.2,7c1.1,1.8,2,3.7,2.8,5.5h0c-0.2-2.2-0.3-4.3-0.3-6.8v-5.7h2.8V178h-3.1l-4.2-7.2
		c-1-1.8-2.1-3.8-2.9-5.6l-0.1,0c0.1,2.1,0.2,4.2,0.2,6.9v5.8H413.9z"/>
	<path d="M431.6,174.7c0.9,0.6,2.4,1,3.9,1c1.9,0,2.9-0.9,2.9-2.2c0-1.2-0.8-2-2.9-2.7c-2.7-1-4.4-2.4-4.4-4.7
		c0-2.7,2.2-4.7,5.8-4.7c1.8,0,3,0.4,3.9,0.8l-0.7,2.4c-0.6-0.3-1.7-0.8-3.3-0.8c-1.9,0-2.7,1-2.7,2c0,1.3,0.9,1.8,3.1,2.7
		c2.8,1.1,4.2,2.5,4.2,4.8c0,2.6-2,4.9-6.2,4.9c-1.7,0-3.5-0.5-4.4-1L431.6,174.7z"/>
	<path d="M448.5,161.7V178h-3v-16.3H448.5z"/>
	<path d="M453.3,178v-16.3h3.4l4.2,7c1.1,1.8,2,3.7,2.8,5.5h0c-0.2-2.2-0.3-4.3-0.3-6.8v-5.7h2.8V178h-3.1l-4.2-7.2
		c-1-1.8-2.1-3.8-2.9-5.6l-0.1,0c0.1,2.1,0.2,4.2,0.2,6.9v5.8H453.3z"/>
	<path d="M480.7,170.9v1.9H470v-1.9H480.7z"/>
	<path d="M498.2,171.3c-0.1-2.1-0.2-4.6-0.2-6.8H498c-0.5,2-1.2,4.2-1.9,6.2l-2.4,7h-2.3l-2.2-7c-0.6-2.1-1.2-4.3-1.6-6.3h0
		c-0.1,2.1-0.2,4.7-0.3,6.9l-0.4,6.5h-2.8l1.1-16.3h3.9l2.1,6.5c0.6,1.9,1.1,3.8,1.5,5.6h0.1c0.4-1.8,1-3.8,1.6-5.7l2.2-6.5h3.9
		l0.9,16.3h-2.9L498.2,171.3z"/>
	<path d="M509,173.4l-1.4,4.6h-3.1l5.2-16.3h3.8l5.3,16.3h-3.2l-1.5-4.6H509z M513.6,171.1l-1.3-4c-0.3-1-0.6-2.1-0.8-3h-0.1
		c-0.2,0.9-0.5,2.1-0.8,3l-1.3,4H513.6z"/>
	<path d="M522.4,161.9c1.3-0.2,3-0.3,4.7-0.3c3,0,5.1,0.6,6.6,1.9c1.6,1.3,2.6,3.2,2.6,6c0,2.9-1,5.1-2.5,6.5
		c-1.6,1.5-4.2,2.2-7.4,2.2c-1.7,0-3-0.1-4-0.2V161.9z M525.4,175.7c0.4,0.1,1,0.1,1.6,0.1c3.9,0,6.2-2.1,6.2-6.3
		c0-3.6-2.1-5.6-5.8-5.6c-0.9,0-1.6,0.1-2,0.2V175.7z"/>
	<path d="M543.3,161.7V178h-3v-16.3H543.3z"/>
	<path d="M548,174.7c0.9,0.6,2.4,1,3.9,1c1.9,0,2.9-0.9,2.9-2.2c0-1.2-0.8-2-2.9-2.7c-2.7-1-4.4-2.4-4.4-4.7c0-2.7,2.2-4.7,5.8-4.7
		c1.8,0,3,0.4,3.9,0.8l-0.7,2.4c-0.6-0.3-1.7-0.8-3.3-0.8c-1.9,0-2.7,1-2.7,2c0,1.3,0.9,1.8,3.1,2.7c2.8,1.1,4.2,2.5,4.2,4.8
		c0,2.6-2,4.9-6.2,4.9c-1.7,0-3.5-0.5-4.4-1L548,174.7z"/>
	<path d="M576.3,169.7c0,5.5-3.3,8.6-7.8,8.6c-4.6,0-7.5-3.5-7.5-8.3c0-5,3.2-8.5,7.7-8.5C573.5,161.4,576.3,165,576.3,169.7z
		 M564.2,169.9c0,3.3,1.7,6,4.5,6c2.9,0,4.5-2.7,4.5-6.1c0-3.1-1.5-6-4.5-6C565.7,163.8,564.2,166.5,564.2,169.9z"/>
	<path d="M580.2,178v-16.3h3.4l4.2,7c1.1,1.8,2,3.7,2.8,5.5h0c-0.2-2.2-0.3-4.3-0.3-6.8v-5.7h2.8V178h-3.1l-4.2-7.2
		c-1-1.8-2.1-3.8-2.9-5.6l-0.1,0c0.1,2.1,0.2,4.2,0.2,6.9v5.8H580.2z"/>
</g>
<g>
	<radialGradient id="SVGID_1_" cx="66.3558" cy="103" r="84.7574" gradientUnits="userSpaceOnUse">
		<stop  offset="0.1656" style="stop-color:#FFFFFF"/>
		<stop  offset="0.2982" style="stop-color:#F6EEE5"/>
		<stop  offset="0.6852" style="stop-color:#DEBF9C"/>
		<stop  offset="0.865" style="stop-color:#D5AD80"/>
	</radialGradient>
	<path class="st1" d="M63.4,201.1c0.7,1,2.2,3,3,3c0.8,0,2.3-2,3-3c42.4-9.9,66-74.3,60.6-126.7c-1.1-10.7-3.4-20.1-6.7-28.1
		c-0.1-0.2-0.5-1.1-0.5-1.3c-2.7-6.2-6.1-11.5-9.9-15.7c-7-7.7-15.8-12-25.4-12.1c-0.3,0-0.2,0-0.2,0c-1.6-3.4-5.7-5.8-9.5-6.3
		c0,0-2.2-9.1-11.3-9.1C57.2,1.9,55,11,55,11c-3.8,0.5-7.9,2.9-9.4,6.3c0,0,0.2,0-0.2,0C35.7,17.4,27,21.7,20,29.4
		c-3.9,4.2-7.2,9.5-9.9,15.7c-0.1,0.2-0.5,1-0.5,1.3c-3.3,8-5.7,17.4-6.7,28.1C-2.6,126.9,21,191.3,63.4,201.1z"/>
</g>
<path class="st2" d="M130,74.5c-1.1-10.7-3.4-20.1-6.7-28.1c-0.1-0.2-0.5-1.1-0.5-1.3c-2.7-6.2-6.1-11.5-9.9-15.7
	c-7-7.7-15.8-12-25.4-12.1c-0.3,0-0.2,0-0.2,0c-1.6-3.4-5.7-5.8-9.5-6.3c0,0-2.2-9.1-11.3-9.1C57.2,1.9,55,11,55,11
	c-3.8,0.5-7.9,2.9-9.4,6.3c0,0,0.2,0-0.2,0C35.7,17.4,27,21.7,20,29.4c-3.9,4.2-7.2,9.5-9.9,15.7c-0.1,0.2-0.5,1-0.5,1.3
	c-3.3,8-5.7,17.4-6.7,28.1C-2.6,126.9,21,191.3,63.4,201.1c0.7,1,2.2,3,3,3c0.8,0,2.3-2,3-3C111.7,191.3,135.3,126.9,130,74.5z
	 M128.1,74.7c0.1,0.7,0.1,1.3,0.2,2c-2,0-4,0.3-5.9,1c-1.4-16.3-5.8-29.8-12.4-38.9c1.3-1.6,3.1-2.9,4.9-3.8
	C121.8,44.6,126.4,58.1,128.1,74.7z M45.4,36.9c-1.5,0.4-1.6,3-1.4,4.7c0.3,1.9,1.3,3.9,2.4,3.7c2.1-0.3,3.7-4.7,3.5-8
	c-0.2-4.7-2.8-5.9-4.4-5.9c-2.5,0-4.4,4-4.4,9.2c0,5.2,1.9,9.2,4.4,9.2c1,0.1,20.4,2.7,18.9-14.2c-0.7-8-5.6-13.7-10.1-16.4
	c4.3-2.6,9.8,1.9,11.4,7.4c0.3,1.1,1,1.1,1.3-0.1c1.8-5.7,6.6-9.9,10.8-7.3c-4.5,2.7-8.9,8.4-9.6,16.4C66.7,52.6,86.2,50,87.2,49.9
	c2.5,0,4.4-4,4.4-9.2c0-5.2-1.9-9.2-4.4-9.2c-1.5,0-4.1,1.2-4.4,5.9c-0.2,3.3,1.4,7.7,3.5,8c1.1,0.1,2.1-1.8,2.4-3.7
	c0.3-1.7,0.1-4.3-1.4-4.7c-0.5-0.1-1,0.2-1.1,0.6c-0.1,0.4,0.9,1.2,0.9,3.1c-0.1,2.9-3,1.4-2.6-3.2c0.3-4.1,2.4-3.8,2.5-3.8
	c1.2,0,2.9,2.4,2.9,7c0,4-2,8.4-5.7,6.1c-3.1-2.3-4.4-7.6-3.5-11.7c0.4-1.9,2-7,7.3-7c7.4,0,14.4,3.9,20,11.1c0,0,0,0,0,0l0.1,0
	c0,0,0.1,0.1,0.1,0.1c-0.5,1.8-3.6,8.9-16.1,16.2c0,0,0,0,0,0c-4.2-2.7-9.1-3.8-13.5-3.8c-6.9,0-9,2.1-12.2,2.1c0,0-0.1,0-0.1,0
	c0,0-0.1,0-0.1,0c-3.2,0-5.3-2.1-12.2-2.1c-4.4,0-9.3,1.1-13.5,3.8c0,0,0,0-0.1,0c-12.4-7.2-15.5-14.1-16.1-16.1
	c5.6-7.4,12.7-11.3,20.2-11.3c5.2,0,6.9,5.1,7.2,7c0.9,4.1-0.4,9.4-3.5,11.7c-3.7,2.3-5.7-2.1-5.7-6.1c0-4.6,1.8-7,2.9-7
	c0.1,0,2.2-0.3,2.5,3.8c0.4,4.6-2.5,6.1-2.6,3.2c0-1.9,1-2.7,0.9-3.1C46.3,37.1,45.8,36.8,45.4,36.9z M109.2,40.6
	c6.4,8.9,10.8,22.3,11.6,39.2c-2.2,1.2-7.1,3.3-13.5,3.9c-1.4-8.8-5.1-20.8-14-27.3C104.6,49.7,108.1,43.4,109.2,40.6z M39.4,56.4
	c-8.9,6.5-12.5,18.5-14,27.3C19.1,83.1,14.3,81,12,79.8c1-16.9,5.3-30.2,11.5-39.1C24.6,43.6,28.2,49.8,39.4,56.4z M25.2,84.9
	c-0.5,3.2-0.7,6-0.7,7.7c-0.1,2.7-0.1,5.5,0,8.2c0,0.5,0.1,1.1,0.1,1.6l0,0.4c0.3,5.3,1.1,10.7,2.2,16l0.1,0.5
	c2.1,9.3,4.9,16.1,6,18.5c2,4.3,3.9,8.2,5.9,11.7c-4,3.6-9.9,5-11.9,5.4c-10.7-21.3-16.2-48.9-15-73.7
	C14.4,82.4,19.1,84.3,25.2,84.9z M39.5,150.6c7.1,12.3,14.2,19.6,19.6,23.5c-2,5-6.6,8.8-8.2,10.1c-9.3-6.2-17.2-16.2-23.3-28.1
	C29.9,155.5,35.5,154.1,39.5,150.6z M60.1,174.8C60.1,174.8,60.1,174.8,60.1,174.8c3,2.2,6,3.4,6.3,3.4c0.2-0.1,3.3-1.3,6.2-3.4
	c0.1,0,0.1-0.1,0.2-0.1c2,4.8,6.1,8.5,8.1,10.1c-2.7,1.7-5.5,3.1-8.4,4.2c0-0.1,0-0.2,0-0.3c-0.6-3.1-4.7-3.7-6.1-3.7
	c-1.4,0-5.5,0.6-6.1,3.7c0,0.1,0,0.2,0,0.3c-2.9-1.1-5.6-2.4-8.3-4.1C53.8,183.3,58.1,179.6,60.1,174.8z M73.8,173.9
	c5.4-3.9,12.4-11.3,19.5-23.5c3.8,3.4,9.2,5,11.7,5.5C99,167.9,91.2,177.8,82,184.1C80.3,182.7,75.7,178.8,73.8,173.9z M93.9,149.3
	c2-3.5,3.9-7.3,5.8-11.6c1.1-2.5,3.9-9.2,6-18.5l0.1-0.5c1.1-5.3,1.9-10.7,2.2-16l0-0.4c0-0.5,0.1-1.1,0.1-1.6
	c0.1-2.7,0.1-5.5,0-8.2c-0.1-1.7-0.3-4.4-0.7-7.7c6.1-0.5,10.8-2.5,13.3-3.7c0.9,24.8-4.5,52.3-15.1,73.7
	C103.3,154.3,97.7,152.8,93.9,149.3z M86.9,19.4c10.9,0,20.2,5.2,27.3,14.6c-1.9,0.9-3.6,2.2-5,3.8c-5.7-7.4-12.8-11.5-20.9-11.6
	c-4.9,0-8.3,3.7-9.3,8.5c-0.8,3.9,0,8.7,2.4,11.8c1.2,1.3,0.7,1.7,0.3,1.7c-3.2,0.1-12.5-2-11.6-12.5c0.6-6.8,3.9-11.3,7.7-14
	C81.3,19.7,85.2,19.4,86.9,19.4z M66.4,3.6c7.4,0,9.1,7.2,9.1,7.3c-0.5,0-1,0.1-1.5,0.2l-1.4,0.4c-2.5,0.8-4.7,2.6-6.1,4.9
	c0,0.1-0.1,0.2-0.2,0.3c-0.1-0.1-0.2-0.2-0.2-0.3c-1.4-2.4-3.5-4.1-6-4.9l-1.4-0.4c-0.5-0.1-1-0.2-1.5-0.2
	C57.2,10.8,58.9,3.6,66.4,3.6z M56.6,12.2c4.2,0,7.9,2.7,9.2,6.7c0.3,1,0.9,1,1.2,0c1.3-4,5-6.7,9.2-6.7c3.6,0,6.9,2.1,8.6,5.3
	c-1.2,0.2-2.6,0.6-4,1.1c-2.5-2.1-4.9-2.1-6.5-1.6c-3.4,1-6.3,4.5-7.8,7.5c0,0-0.1,0.1-0.1,0.1c0,0-0.1,0-0.1-0.1
	c-1.5-3-4.3-6.5-7.8-7.5c-1.6-0.5-4-0.5-6.5,1.6c-1.4-0.5-2.7-0.9-4-1.1C49.6,14.3,52.9,12.2,56.6,12.2z M45.8,19.4
	c1.6,0,5.5,0.3,9,2.4c3.8,2.7,7.1,7.2,7.7,14c0.9,10.5-9.8,12.1-11.8,12.1c-0.3,0-0.5-0.3,0.6-1.4c2.5-3.1,3.2-8,2.4-11.8
	c-1-4.8-4.4-8.6-9.3-8.5c-8.1,0-15.3,4.2-21,11.6c-1.4-1.6-3.1-2.9-4.9-3.8C25.6,24.6,35,19.4,45.8,19.4z M4.6,74.7
	c1.7-16.6,6.3-30.1,13.1-39.7c1.9,0.9,3.6,2.2,4.9,3.8c-6.6,9.1-11,22.6-12.4,38.9c-1.8-0.7-3.9-1.1-5.9-1C4.5,76,4.5,75.4,4.6,74.7
	z M16.5,152.2C6.7,129.7,2.3,102.8,4.3,78c2-0.1,4,0.3,5.9,1.1c0,0.5-0.1,1-0.1,1.5c-1.5,24.7,3.9,52.2,14.5,73.8
	c-2.1,0.5-4.1,1.3-5.8,2.6C18,155.4,17.2,153.8,16.5,152.2z M19.3,158.1c1.7-1.3,3.8-2.2,5.8-2.6c6.2,12.2,14.1,22.5,23.4,29.2
	c-1.6,1.4-2.9,3.2-3.8,5.1C34.9,182.8,26.2,172,19.3,158.1z M45.8,190.6c0.8-2,2.2-3.7,3.8-5.1c3.3,2.3,6.8,4.1,10.4,5.4
	c-0.1,2.7,0.6,5.2,1.5,7.2C56.1,196.6,50.8,194.1,45.8,190.6z M67.1,201c0,0-0.4,0.5-0.8,0.5c-0.4,0-0.7-0.5-0.8-0.5
	c-1.8-2.3-4.5-6.7-3.5-12c0.3-1.5,2.8-2.2,4.3-2.2c1.4,0,4,0.7,4.3,2.2C71.7,194.3,69,198.7,67.1,201z M71.2,198.1
	c0.9-2,1.6-4.5,1.5-7.2c3.7-1.3,7.1-3.1,10.4-5.4c1.7,1.4,3,3.2,3.8,5.1C82,194,76.7,196.6,71.2,198.1z M88,189.8
	c-0.9-1.9-2.2-3.7-3.8-5.1c9.3-6.7,17.2-17,23.4-29.2c2.1,0.4,4.1,1.3,5.8,2.6C106.5,171.9,97.9,182.7,88,189.8z M116.2,152.2
	c-0.7,1.6-1.4,3.2-2.2,4.7c-1.7-1.3-3.7-2.2-5.8-2.6c10.6-21.6,16-49.1,14.5-73.8c0-0.5-0.1-1-0.1-1.5c1.8-0.8,3.9-1.1,5.9-1.1
	C130.4,102.9,126,129.7,116.2,152.2z"/>
<linearGradient id="SVGID_2_" gradientUnits="userSpaceOnUse" x1="66.275" y1="175.8044" x2="66.275" y2="53.7826">
	<stop  offset="1.226990e-02" style="stop-color:#891C21"/>
	<stop  offset="3.047632e-02" style="stop-color:#931E23"/>
	<stop  offset="8.241533e-02" style="stop-color:#A92027"/>
	<stop  offset="0.1419" style="stop-color:#BB2029"/>
	<stop  offset="0.2124" style="stop-color:#C8202A"/>
	<stop  offset="0.3049" style="stop-color:#D0202B"/>
	<stop  offset="0.5031" style="stop-color:#D2202B"/>
	<stop  offset="0.6702" style="stop-color:#CF202B"/>
	<stop  offset="0.7771" style="stop-color:#C6202A"/>
	<stop  offset="0.867" style="stop-color:#B72028"/>
	<stop  offset="0.947" style="stop-color:#A21F25"/>
	<stop  offset="1" style="stop-color:#911D22"/>
</linearGradient>
<path class="st3" d="M106.1,92.9c-0.3-6.3-2.1-27.5-15.1-35.8c-2.9-1.9-6.7-3.1-10.2-3.3c-0.5,0-0.9,0-1.4,0c-3.4,0-6.3,0.8-8.7,1.4
	c-1.6,0.4-3.1,0.8-4.3,0.9h-0.2c-1.2,0-2.6-0.4-4.3-0.9c-2.4-0.6-5.3-1.4-8.7-1.4c-0.5,0-1,0-1.4,0c-3.6,0.2-7.3,1.4-10.2,3.3
	c-13,8.3-14.9,29.5-15.1,35.8c-0.9,22.2,5.8,39.8,8,44.6c9,19.9,20.2,33.1,31,37.9l0.9,0.4l0.9-0.4c10.8-4.8,21.9-18,31-37.9
	C100.3,132.7,107,115.1,106.1,92.9z"/>
<path class="st4" d="M85.6,77.5v4.3l0.9-0.1c0,0,0.2,0,0.4,0c0.5,0,1.4,0.1,1.9,0.6c0.5,0.5,0.7,1.4,0.5,2.6c0,0-8.7,37.5-10.3,44.7
	c-1.9-9-12.2-58.3-12.2-58.3l0-0.2h-2l0,0.2c0,0-7.5,48-8.9,57.6c-1.9-8.3-10.2-43.9-10.2-43.9c0-0.2,0-0.4,0-0.6
	c0-1,0.2-1.7,0.7-2.2c0.6-0.6,1.6-0.5,1.7-0.5l0.9,0.1l0-4.2H34.2v4.1l0.6,0.1c0.3,0.1,1.9,0.5,2.2,1.9c0,0,16.9,72.6,17.6,75.7
	l0,0.2h2.5l0-0.2c0.1-0.5,7-45.6,8.3-54c1.6,8.4,10.4,53.5,10.5,54l0,0.2h2.3l16.8-75.9c0.4-1.6,1.8-1.7,2.3-1.7c0.1,0,0.1,0,0.2,0
	l0.8,0.1v-4.4H85.6z"/>
</svg>
