<svg id="Layer_1" data-name="Layer 1" xmlns="http://www.w3.org/2000/svg" xmlns:xlink="http://www.w3.org/1999/xlink" viewBox="0 0 600 206"><defs><style>.cls-1{fill:url(#Web_Shield_blend);}.cls-2{fill:#282728;}.cls-3{fill:#c5050c;}.cls-4{fill:#fff;}</style><radialGradient id="Web_Shield_blend" cx="628.46" cy="1917.06" r="160.6" gradientTransform="translate(-255.44 -883.83) scale(0.51 0.51)" gradientUnits="userSpaceOnUse"><stop offset="0.17" stop-color="#fff"/><stop offset="0.3" stop-color="#f6ede4"/><stop offset="0.69" stop-color="#debe9b"/><stop offset="0.87" stop-color="#d4ac7f"/></radialGradient></defs><title>uw-crest-wordmark-overlay-final</title><path class="cls-1" d="M68.06,201.75a8.61,8.61,0,0,1-2.4-2.64l-0.14-.21-0.25-.06C24,189.21,1,125.85,6.18,75A108.65,108.65,0,0,1,9.11,58.49,80.58,80.58,0,0,1,14.4,43.94,53.63,53.63,0,0,1,23,31.07c6.86-7.51,15.33-11.55,24.51-11.68a0.75,0.75,0,0,0,.86-0.57c1.61-3.27,5.74-5.56,8.83-6l0.43-.06,0.11-.42c0.09-.34,2.05-8.09,10.38-8.09s10.36,8,10.38,8.05l0.1,0.43L79,12.79c3.09,0.43,7.2,2.75,8.82,6a0.74,0.74,0,0,0,.85.59c9.19,0.13,17.66,4.17,24.52,11.68a54.69,54.69,0,0,1,9.66,15.28l0.53,1.26A96.91,96.91,0,0,1,129.94,75c5.18,50.85-17.82,114.2-59.09,123.83l-0.25.06-0.14.21A8.6,8.6,0,0,1,68.06,201.75Z"/><path class="cls-2" d="M130.52,74.95a112.71,112.71,0,0,0-2-12.52,90.65,90.65,0,0,0-3.17-11.22A71.24,71.24,0,0,0,120.32,40a51.54,51.54,0,0,0-6.73-9.35c-6.93-7.59-15.48-11.77-25-11.9H88.42c-1.54-3.37-5.78-6.11-9.47-6.63,0,0-2-8.45-10.88-8.49s-10.88,8.49-10.88,8.49c-3.69.51-7.94,3.26-9.47,6.63H47.5c-9.49.13-18,4.32-25,11.9A51.54,51.54,0,0,0,15.8,40a71.24,71.24,0,0,0-5.07,11.22A90.65,90.65,0,0,0,7.56,62.43a112.71,112.71,0,0,0-2,12.52c-5.25,51.5,17.92,114.81,59.58,124.52,0.63,0.95,2.08,2.92,2.88,2.92s2.25-2,2.88-2.92C112.61,189.75,135.77,126.45,130.52,74.95ZM68.06,5.61A8.88,8.88,0,0,1,77,11.89a11.06,11.06,0,0,0-8.78,5.62,0.39,0.39,0,0,1-.16.21,0.35,0.35,0,0,1-.16-0.21,11.06,11.06,0,0,0-8.78-5.62A8.88,8.88,0,0,1,68.06,5.61Zm-4.24,9.76a8,8,0,0,1,3.63,4.8,1.05,1.05,0,0,0,.61.95,1.05,1.05,0,0,0,.61-0.95,8,8,0,0,1,3.63-4.8A9.54,9.54,0,0,1,86,19a30.46,30.46,0,0,0-3.8,1,15,15,0,0,0-5.41,3,21.41,21.41,0,0,0-6.93,13.88c-1.52,16.65,17.58,14,18.55,14,2.47,0,4.33-3.89,4.33-9s-1.91-9-4.33-9c-1.48,0-4,1.18-4.28,5.8-0.17,3.24,1.42,7.55,3.47,7.82,1.06,0.14,2-1.74,2.34-3.65,0.27-1.66.13-4.26-1.35-4.63a0.87,0.87,0,0,0-1.06.64c-0.11.42,0.92,1.15,0.88,3.06-0.06,2.85-2.92,1.43-2.54-3.1,0.35-4,2.4-3.76,2.48-3.76,1.15,0,2.87,2.39,2.87,6.86,0,4-1.92,8.26-5.59,6-3.09-2.26-4.31-7.46-3.46-11.49,0.39-1.85,2-6.88,7.13-6.88,7.42,0,14.34,3.9,19.86,11.15C108.6,42.5,104.78,49.9,92.62,57c-0.26.13-.64,0.35-0.67,0.35A25,25,0,0,0,80.71,55.1a61.65,61.65,0,0,0-10.56,1.68,9.31,9.31,0,0,1-2.09.34h0A9.31,9.31,0,0,1,66,56.78,61.65,61.65,0,0,0,55.41,55.1a25,25,0,0,0-11.24,2.22s-0.4-.21-0.67-0.35c-12.16-7.08-16-14.48-16.59-16.42C32.43,33.3,39.35,29.4,46.77,29.4c5.14,0,6.74,5,7.13,6.88,0.85,4-.37,9.23-3.46,11.49-3.67,2.24-5.59-2-5.59-6,0-4.47,1.73-6.86,2.87-6.86,0.09,0,2.13-.25,2.48,3.76,0.38,4.52-2.48,5.95-2.54,3.1,0-1.91,1-2.63.88-3.06A0.87,0.87,0,0,0,47.49,38c-1.48.37-1.62,3-1.35,4.63,0.3,1.9,1.28,3.78,2.34,3.65,2-.27,3.64-4.58,3.47-7.82-0.24-4.62-2.8-5.8-4.28-5.8-2.42,0-4.33,3.89-4.33,9s1.86,9,4.33,9c1,0.08,20.06,2.7,18.55-14a21.41,21.41,0,0,0-6.93-13.88,15,15,0,0,0-5.41-3,30.46,30.46,0,0,0-3.8-1A9.54,9.54,0,0,1,63.83,15.37ZM27.7,85.19A74,74,0,0,0,27,92.72a101.15,101.15,0,0,0,4.66,34.72,112.68,112.68,0,0,0,9.41,21.22c-3.9,3.55-9.74,4.94-11.71,5.33-10.55-21-15.92-48.06-14.73-72.47A36.74,36.74,0,0,0,27.7,85.19Zm-13-5c1-16.65,5.22-29.72,11.35-38.43,1.09,2.83,5.85,9.9,16.84,16.35-9.34,5.62-13.56,17.22-15,25.87A36,36,0,0,1,14.68,80.19Zm27,69.56c7,12.07,13.94,19.28,19.24,23.08-1.92,4.86-6.46,8.68-8.06,9.92C43.73,176.6,36,166.87,29.92,155.12,32.26,154.64,37.75,153.21,41.68,149.75ZM62,173.56a27.77,27.77,0,0,0,6.09,3.35,27.77,27.77,0,0,0,6.09-3.35c2,4.73,6.15,8.4,8,9.89A42.56,42.56,0,0,1,74,187.51c0-.1,0-0.2,0-0.3-0.58-3-4.51-3.62-5.94-3.62s-5.36.62-5.94,3.62c0,0.1,0,.2,0,0.3a42.56,42.56,0,0,1-8.15-4.06C55.82,182,60,178.3,62,173.56Zm13.23-.74c5.3-3.8,12.24-11,19.24-23.08,3.93,3.46,9.42,4.89,11.76,5.37-6.08,11.75-13.81,21.48-22.94,27.62C81.67,181.51,77.12,177.69,75.21,172.82Zm19.86-24.16a112.68,112.68,0,0,0,9.41-21.22,100.42,100.42,0,0,0,3.78-16.67,101,101,0,0,0,.88-18,74,74,0,0,0-.72-7.53,36.74,36.74,0,0,0,13.09-3.66c1.19,24.41-4.18,51.49-14.73,72.47C104.81,153.61,99,152.21,95.07,148.66ZM108.23,84c-1.42-8.65-5.7-20-15-25.87,11-6.45,15.75-13.52,16.84-16.35,6.13,8.71,10.36,21.77,11.35,38.43A36,36,0,0,1,108.23,84Zm-47,111.83a53,53,0,0,1-13.36-6.67,62.62,62.62,0,0,1-7.39-6,70.83,70.83,0,0,1-5.36-5.62q-1.72-2-3.32-4.13a108.15,108.15,0,0,1-12.7-22.06,145.52,145.52,0,0,1-7.8-23.22,160.45,160.45,0,0,1-4.08-24.7,147,147,0,0,1-.16-24.68C7.48,74.37,8,70,8.8,65.63a89.55,89.55,0,0,1,3.25-12.77,70.67,70.67,0,0,1,4.79-11.08A47.67,47.67,0,0,1,24,31.69a36.88,36.88,0,0,1,9-7.07,31.71,31.71,0,0,1,4.4-2q1.15-.42,2.34-0.74a20.09,20.09,0,0,1,2.35-.59A31.93,31.93,0,0,1,48,20.84a17.27,17.27,0,0,1,8.84,2.38A18.2,18.2,0,0,1,64.39,37c0.9,10.28-9.58,11.91-11.64,11.89-0.31,0-.48-0.3.54-1.35A14.86,14.86,0,0,0,55.68,35.9c-1-4.72-4.32-8.41-9.15-8.4-7.23,0-13.68,3.63-18.48,8.87S20.16,47.81,17.87,54.29a97.2,97.2,0,0,0-5,25.91,142.17,142.17,0,0,0,.52,24.23,156.47,156.47,0,0,0,4.44,24.13,138.5,138.5,0,0,0,8,22.44,98.73,98.73,0,0,0,12.48,20.55,59,59,0,0,0,18.52,15.65,41.32,41.32,0,0,0,5,2.18,15.29,15.29,0,0,0,1.51,7.06A15.09,15.09,0,0,1,61.27,195.81Zm7.5,3.52a1.37,1.37,0,0,1-.71.48,1.37,1.37,0,0,1-.71-0.48c-1.78-2.24-4.44-6.59-3.44-11.77,0.28-1.46,2.74-2.12,4.15-2.14s3.87,0.67,4.15,2.14C73.22,192.74,70.56,197.09,68.77,199.33Zm60.08-95.89a160.45,160.45,0,0,1-4.08,24.7,145.52,145.52,0,0,1-7.8,23.22,108.15,108.15,0,0,1-12.7,22.06q-1.6,2.11-3.32,4.13a70.83,70.83,0,0,1-5.36,5.62,62.62,62.62,0,0,1-7.39,6,53,53,0,0,1-13.36,6.67,15.09,15.09,0,0,1-2.13.63,15.29,15.29,0,0,0,1.51-7.06,41.32,41.32,0,0,0,5-2.18,59,59,0,0,0,18.52-15.65A98.73,98.73,0,0,0,110.27,151a138.5,138.5,0,0,0,8-22.44,156.47,156.47,0,0,0,4.44-24.13,142.17,142.17,0,0,0,.52-24.23,97.2,97.2,0,0,0-5-25.91c-2.29-6.48-5.5-12.82-10.17-17.91S96.82,27.51,89.59,27.5c-4.83,0-8.16,3.68-9.15,8.4a14.86,14.86,0,0,0,2.39,11.62c1,1.05.85,1.35,0.54,1.35-2.05,0-12.54-1.61-11.64-11.89a18.2,18.2,0,0,1,7.6-13.77,17.27,17.27,0,0,1,8.84-2.38,31.93,31.93,0,0,1,5.83.48,20,20,0,0,1,2.35.59q1.18,0.32,2.34.74a31.71,31.71,0,0,1,4.4,2,36.88,36.88,0,0,1,9,7.07,47.67,47.67,0,0,1,7.17,10.1,70.67,70.67,0,0,1,4.79,11.08,89.55,89.55,0,0,1,3.25,12.77c0.79,4.34,1.32,8.73,1.69,13.13A147,147,0,0,1,128.85,103.44Z"/><path class="cls-3" d="M106.88,93c-0.26-6.12-2-24.81-14.76-32.92a21.43,21.43,0,0,0-10-2.76c-6.24-.41-10.87,2-14,2.07H68c-3.12-.09-7.78-2.47-14-2.07a21.3,21.3,0,0,0-10,2.76C31.29,68.24,29.5,86.93,29.24,93a99.11,99.11,0,0,0,8.06,43.23c8.8,19.38,19.42,33.08,29.92,37.73l0.84,0.38L68.9,174c10.49-4.66,21.11-18.36,29.91-37.73A99.12,99.12,0,0,0,106.88,93Z"/><path class="cls-4" d="M87,78.35v4.23l0.86-.13a3.05,3.05,0,0,1,.4,0,2.67,2.67,0,0,1,1.87.63,2.88,2.88,0,0,1,.49,2.53s-8.51,36.87-10.13,43.89c-1.86-8.87-12-57.33-12-57.33l0-.21h-2l0,0.22-8.79,56.61L47.52,85.63a6.14,6.14,0,0,1,0-.63,2.89,2.89,0,0,1,.7-2.16,2.22,2.22,0,0,1,1.64-.5l0.84,0.11V78.35H36.47v4l0.63,0.1a2.64,2.64,0,0,1,2.16,1.89l17.33,74.4,0,0.2h2.5l0-.22c0.08-.49,6.85-44.77,8.11-53.07,1.61,8.26,10.22,52.59,10.32,53.07l0,0.21h2.23L96.37,84.3a2.23,2.23,0,0,1,2.31-1.72h0.16l0.82,0.07V78.35H87Z"/><path class="cls-4" d="M209.49,78.35c6.9,2.48,4,9.91,2.39,15.14l-10,33.57-12.3-39.72c-1.24-4-1.85-7-1.33-9.26H175.78v0.27c4.87,2.57,3.1,8.53,1.42,14.13l-10.35,34.86L153.67,84.69c-0.53-1.75-1.41-4.59-1.06-6.6H139.69v0.27c4.42,3.12,5.76,9.09,7.34,14.13l10.44,33.85c2.91,9.45,3.71,8.81,11.75,14.86L183,94.86l9.72,31.56c2.93,9.45,3.55,9,11.68,14.77L223.1,78.08H209.49v0.27Z"/><path class="cls-4" d="M226.11,78.35C230.62,80.1,230,86.79,230,91v34.58c0,4.12.53,10.92-3.89,12.57v0.28h16.81v-0.28c-4.42-1.75-3.9-8.45-3.9-12.57V91c0-4.13-.53-10.92,3.9-12.66V78.08H226.11v0.27Z"/><path class="cls-4" d="M258.39,91.57c0-6.33,6.37-8.35,11.41-8.35A19.77,19.77,0,0,1,283.7,89V78.63a43,43,0,0,0-13.18-2c-10.79,0-22.2,4.41-22.2,16,0,19.45,30.42,16.88,30.42,31.19,0,6.42-7.6,9.54-12.64,9.54a30,30,0,0,1-19.37-7.61l2.57,11.46a44.27,44.27,0,0,0,15.83,2.75c13.81,0,23.71-9.18,23.71-19C288.83,103.95,258.39,104.13,258.39,91.57Z"/><path class="cls-4" d="M324.68,132.3c-13.62,0-22.47-12-22.47-25.5,0-13.3,8.49-22.57,20.7-22.57a30,30,0,0,1,16.37,5.23V78.91a68.31,68.31,0,0,0-16.1-2.3c-18.14,0-31.05,12.57-31.05,31.56,0,19.63,12.92,31.74,33.8,31.74a30.31,30.31,0,0,0,13.36-2.75l4.51-10.63h-0.27C337.94,129.81,331.31,132.3,324.68,132.3Z"/><path class="cls-4" d="M375.68,76.53c-18.57-.47-33.17,14.12-33.17,31.54,0,18.81,14.77,31.83,32.29,31.83s32.54-13.58,32.54-32.3A31,31,0,0,0,375.68,76.53Zm-0.44,56.77c-13.89,0-22.65-13.2-22.65-26.05,0-13.85,8.76-24.12,22.48-24.12,14,0,22.19,12.94,22.19,26.33C397.27,123.12,388.69,133.3,375.25,133.3Z"/><path class="cls-4" d="M452.79,78.35c4.69,2.75,4.6,6.43,4.6,11.56v34.77L425,82.31l-1.24-1.84a5.64,5.64,0,0,1-1.33-2.3V78.08H409.54v0.27c4.6,2.75,4.6,6.43,4.6,11.56v36.6c0,5.13,0,8.8-4.69,11.65v0.28H425.1v-0.28c-4.69-2.85-4.6-6.51-4.6-11.65V91l30.34,39.9c3.89,5.23,6.63,8.26,12.91,10.46V89.91c0-5.13,0-8.81,4.6-11.56V78.08H452.79v0.27Z"/><path class="cls-4" d="M481.3,91.57c0-6.33,6.37-8.35,11.41-8.35A19.76,19.76,0,0,1,506.59,89V78.63a43,43,0,0,0-13.18-2c-10.78,0-22.2,4.41-22.2,16,0,19.45,30.42,16.88,30.42,31.19,0,6.42-7.61,9.54-12.65,9.54a30,30,0,0,1-19.37-7.61l2.57,11.46A44.31,44.31,0,0,0,488,139.91c13.79,0,23.7-9.18,23.7-19C511.72,103.95,481.3,104.13,481.3,91.57Z"/><path class="cls-4" d="M515.06,78.35C519.57,80.1,519,86.79,519,91v34.58c0,4.12.54,10.92-3.89,12.57v0.28h16.8v-0.28c-4.43-1.75-3.89-8.45-3.89-12.57V91c0-4.13-.54-10.92,3.89-12.66V78.08h-16.8v0.27Z"/><path class="cls-4" d="M579.57,78.08v0.27c4.7,2.75,4.61,6.43,4.61,11.56v34.77L551.8,82.31l-1.24-1.84a5.92,5.92,0,0,1-1.33-2.3V78.08H536.31v0.27c4.6,2.75,4.6,6.43,4.6,11.56v36.6c0,5.13,0,8.8-4.68,11.65v0.28h15.66v-0.28c-4.69-2.85-4.6-6.51-4.6-11.65V91l30.34,39.9c3.89,5.23,6.64,8.26,12.91,10.46V89.91c0-5.13,0-8.81,4.6-11.56V78.08H579.57Z"/><path class="cls-4" d="M168.24,152v10.65a6.32,6.32,0,0,1-.78,3.19,5.21,5.21,0,0,1-2.26,2.11,7.86,7.86,0,0,1-3.54.74,6.63,6.63,0,0,1-4.76-1.62,5.87,5.87,0,0,1-1.7-4.46V152h2.7v10.42a4.16,4.16,0,0,0,.95,3,3.9,3.9,0,0,0,2.91,1q3.81,0,3.81-4V152h2.69Z"/><path class="cls-4" d="M186.45,168.46h-3.3l-8.1-13.12H175l0.06,0.73q0.16,2.09.16,3.83v8.56h-2.44V152H176L184.07,165h0.07q0-.26-0.09-1.89T184,160.62V152h2.47v16.46Z"/><path class="cls-4" d="M191.3,168.46V152H194v16.46H191.3Z"/><path class="cls-4" d="M208.23,152H211l-5.77,16.46h-2.84L196.68,152h2.77l3.43,10.24q0.27,0.73.57,1.89t0.39,1.72q0.15-.86.45-2t0.5-1.67Z"/><path class="cls-4" d="M223,168.46h-9.31V152H223v2.27H216.4v4.48h6.21V161H216.4v5.17H223v2.29Z"/><path class="cls-4" d="M229.78,161.88v6.58h-2.69V152h4.65a7.64,7.64,0,0,1,4.72,1.19,4.29,4.29,0,0,1,1.53,3.6,4.5,4.5,0,0,1-3.2,4.38l4.65,7.29h-3.06l-3.94-6.58h-2.66Zm0-2.23h1.87a4.27,4.27,0,0,0,2.73-.7,2.53,2.53,0,0,0,.84-2.07,2.23,2.23,0,0,0-.91-2,5,5,0,0,0-2.75-.61h-1.78v5.38Z"/><path class="cls-4" d="M251.83,164a4.15,4.15,0,0,1-1.59,3.45,6.91,6.91,0,0,1-4.38,1.25,10.45,10.45,0,0,1-4.57-.87v-2.55a12.42,12.42,0,0,0,2.39.83,10.17,10.17,0,0,0,2.36.3,3.75,3.75,0,0,0,2.36-.61,2,2,0,0,0,.76-1.63,2,2,0,0,0-.7-1.57,10.54,10.54,0,0,0-2.88-1.52A7.63,7.63,0,0,1,242.4,159a4.41,4.41,0,0,1-.92-2.82,4,4,0,0,1,1.46-3.24,6.08,6.08,0,0,1,3.93-1.18,11.56,11.56,0,0,1,4.71,1l-0.86,2.2a10.29,10.29,0,0,0-3.92-.92,3,3,0,0,0-2,.57,1.87,1.87,0,0,0-.68,1.5,2.12,2.12,0,0,0,.27,1.1,2.77,2.77,0,0,0,.89.86,15,15,0,0,0,2.23,1.07,12.19,12.19,0,0,1,2.66,1.41,4.14,4.14,0,0,1,1.24,1.48A4.44,4.44,0,0,1,251.83,164Z"/><path class="cls-4" d="M255.52,168.46V152h2.69v16.46h-2.69Z"/><path class="cls-4" d="M268.76,168.46h-2.69V154.3h-4.84V152H273.6v2.31h-4.84v14.16Z"/><path class="cls-4" d="M281.28,159.5l3.9-7.51h2.93l-5.48,10.08v6.39h-2.7v-6.3L274.46,152h2.93Z"/><path class="cls-4" d="M311.9,160.2a9,9,0,0,1-2,6.25,8.45,8.45,0,0,1-11.42,0,9.07,9.07,0,0,1-2-6.29,8.92,8.92,0,0,1,2-6.26,7.41,7.41,0,0,1,5.74-2.19,7.26,7.26,0,0,1,5.68,2.22A9,9,0,0,1,311.9,160.2Zm-12.57,0a7.38,7.38,0,0,0,1.23,4.61,5,5,0,0,0,7.26,0,9.36,9.36,0,0,0,0-9.22,4.28,4.28,0,0,0-3.61-1.57,4.37,4.37,0,0,0-3.66,1.57A7.32,7.32,0,0,0,299.33,160.2Z"/><path class="cls-4" d="M318.62,168.46h-2.67V152h9.29v2.27h-6.62v5.15h6.21v2.29h-6.21v6.76Z"/><path class="cls-4" d="M350.42,168.46h-2.93l-2.79-9.82q-0.18-.64-0.45-1.85t-0.33-1.68q-0.11.72-.37,1.87t-0.42,1.71l-2.72,9.78h-2.93l-2.13-8.24L333.19,152h2.75l2.35,9.59q0.55,2.31.79,4.08,0.12-1,.37-2.14t0.45-1.92l2.68-9.62h2.67l2.75,9.66a36.18,36.18,0,0,1,.83,4,29.38,29.38,0,0,1,.81-4.1L352,152h2.73Z"/><path class="cls-4" d="M357.55,168.46V152h2.69v16.46h-2.69Z"/><path class="cls-4" d="M374.59,164a4.15,4.15,0,0,1-1.59,3.45,6.91,6.91,0,0,1-4.38,1.25,10.45,10.45,0,0,1-4.57-.87v-2.55a12.42,12.42,0,0,0,2.39.83,10.17,10.17,0,0,0,2.36.3,3.75,3.75,0,0,0,2.36-.61,2,2,0,0,0,.76-1.63,2,2,0,0,0-.7-1.57,10.54,10.54,0,0,0-2.88-1.52,7.63,7.63,0,0,1-3.18-2.08,4.41,4.41,0,0,1-.92-2.82,4,4,0,0,1,1.46-3.24,6.08,6.08,0,0,1,3.93-1.18,11.56,11.56,0,0,1,4.71,1l-0.86,2.2a10.29,10.29,0,0,0-3.92-.92,3,3,0,0,0-2,.57,1.87,1.87,0,0,0-.68,1.5,2.12,2.12,0,0,0,.27,1.1,2.77,2.77,0,0,0,.89.86,15,15,0,0,0,2.23,1.07,12.19,12.19,0,0,1,2.66,1.41A4.14,4.14,0,0,1,374.2,162,4.44,4.44,0,0,1,374.59,164Z"/><path class="cls-4" d="M385.29,154.06a4.44,4.44,0,0,0-3.65,1.64,8.64,8.64,0,0,0-.05,9.12,4.52,4.52,0,0,0,3.7,1.55,9.74,9.74,0,0,0,2-.21q1-.21,2-0.54v2.31a12.36,12.36,0,0,1-4.39.73,7,7,0,0,1-5.55-2.19,9.17,9.17,0,0,1-1.94-6.27,10.13,10.13,0,0,1,.94-4.49,6.72,6.72,0,0,1,2.72-3,8.22,8.22,0,0,1,4.18-1,10.38,10.38,0,0,1,4.66,1.06l-1,2.24a14.53,14.53,0,0,0-1.76-.69A6.35,6.35,0,0,0,385.29,154.06Z"/><path class="cls-4" d="M408,160.2a9,9,0,0,1-2,6.25,8.45,8.45,0,0,1-11.42,0,9.07,9.07,0,0,1-2-6.29,8.92,8.92,0,0,1,2-6.26,7.41,7.41,0,0,1,5.74-2.19,7.26,7.26,0,0,1,5.68,2.22A9,9,0,0,1,408,160.2Zm-12.57,0a7.38,7.38,0,0,0,1.23,4.61,5,5,0,0,0,7.26,0,9.36,9.36,0,0,0,0-9.22,4.28,4.28,0,0,0-3.61-1.57,4.37,4.37,0,0,0-3.66,1.57A7.32,7.32,0,0,0,395.46,160.2Z"/><path class="cls-4" d="M425.79,168.46h-3.3l-8.1-13.12H414.3l0.06,0.73q0.16,2.09.16,3.83v8.56h-2.44V152h3.27L423.41,165h0.07q0-.26-0.09-1.89t-0.07-2.54V152h2.47v16.46Z"/><path class="cls-4" d="M440.14,164a4.15,4.15,0,0,1-1.59,3.45,6.91,6.91,0,0,1-4.38,1.25,10.45,10.45,0,0,1-4.57-.87v-2.55a12.42,12.42,0,0,0,2.39.83,10.17,10.17,0,0,0,2.36.3,3.75,3.75,0,0,0,2.36-.61,2,2,0,0,0,.76-1.63,2,2,0,0,0-.7-1.57,10.54,10.54,0,0,0-2.88-1.52,7.63,7.63,0,0,1-3.18-2.08,4.41,4.41,0,0,1-.92-2.82,4,4,0,0,1,1.46-3.24,6.08,6.08,0,0,1,3.93-1.18,11.56,11.56,0,0,1,4.71,1L439,155a10.29,10.29,0,0,0-3.92-.92,3,3,0,0,0-2,.57,1.87,1.87,0,0,0-.68,1.5,2.12,2.12,0,0,0,.27,1.1,2.77,2.77,0,0,0,.89.86,15,15,0,0,0,2.23,1.07,12.19,12.19,0,0,1,2.66,1.41,4.14,4.14,0,0,1,1.24,1.48A4.44,4.44,0,0,1,440.14,164Z"/><path class="cls-4" d="M443.83,168.46V152h2.69v16.46h-2.69Z"/><path class="cls-4" d="M465.09,168.46h-3.3l-8.1-13.12h-0.09l0.06,0.73q0.16,2.09.16,3.83v8.56h-2.44V152h3.27L462.72,165h0.07q0-.26-0.09-1.89t-0.07-2.54V152h2.47v16.46Z"/><path class="cls-4" d="M468.7,163.33v-2.14h9.68v2.14H468.7Z"/><path class="cls-4" d="M489.11,168.46l-4.78-13.75h-0.09q0.19,3.06.19,5.74v8H482V152h3.79l4.57,13.1h0.07l4.71-13.1h3.81v16.46h-2.59v-8.14q0-1.23.06-3.2t0.11-2.39h-0.09l-4.94,13.73h-2.38Z"/><path class="cls-4" d="M514,168.46l-1.64-4.57h-6.3l-1.61,4.57h-2.84l6.16-16.53h2.93l6.16,16.53H514Zm-2.35-6.89-1.54-4.48q-0.17-.45-0.47-1.42t-0.41-1.42a25.41,25.41,0,0,1-.89,3l-1.49,4.29h4.8Z"/><path class="cls-4" d="M532.93,160.07a8.21,8.21,0,0,1-2.26,6.23q-2.26,2.16-6.52,2.16h-4.61V152h5.09a8.42,8.42,0,0,1,6.12,2.12A7.91,7.91,0,0,1,532.93,160.07Zm-2.84.09q0-5.91-5.53-5.91h-2.33v11.95h1.91Q530.09,166.19,530.09,160.16Z"/><path class="cls-4" d="M537,168.46V152h2.69v16.46H537Z"/><path class="cls-4" d="M554,164a4.15,4.15,0,0,1-1.59,3.45,6.91,6.91,0,0,1-4.38,1.25,10.45,10.45,0,0,1-4.57-.87v-2.55a12.42,12.42,0,0,0,2.39.83,10.17,10.17,0,0,0,2.36.3,3.75,3.75,0,0,0,2.36-.61,2,2,0,0,0,.76-1.63,2,2,0,0,0-.7-1.57,10.54,10.54,0,0,0-2.88-1.52,7.63,7.63,0,0,1-3.18-2.08,4.41,4.41,0,0,1-.92-2.82,4,4,0,0,1,1.46-3.24,6.08,6.08,0,0,1,3.93-1.18,11.56,11.56,0,0,1,4.71,1l-0.86,2.2a10.29,10.29,0,0,0-3.92-.92,3,3,0,0,0-2,.57,1.87,1.87,0,0,0-.68,1.5,2.12,2.12,0,0,0,.27,1.1,2.77,2.77,0,0,0,.89.86,15,15,0,0,0,2.23,1.07,12.19,12.19,0,0,1,2.66,1.41,4.14,4.14,0,0,1,1.24,1.48A4.44,4.44,0,0,1,554,164Z"/><path class="cls-4" d="M572.33,160.2a9,9,0,0,1-2,6.25,8.45,8.45,0,0,1-11.42,0,9.07,9.07,0,0,1-2-6.29,8.92,8.92,0,0,1,2-6.26,7.41,7.41,0,0,1,5.74-2.19,7.26,7.26,0,0,1,5.68,2.22A9,9,0,0,1,572.33,160.2Zm-12.57,0a7.38,7.38,0,0,0,1.23,4.61,5,5,0,0,0,7.26,0,9.36,9.36,0,0,0,0-9.22,4.28,4.28,0,0,0-3.61-1.57,4.37,4.37,0,0,0-3.66,1.57A7.32,7.32,0,0,0,559.76,160.2Z"/><path class="cls-4" d="M590.09,168.46h-3.3l-8.1-13.12H578.6l0.06,0.73q0.16,2.09.16,3.83v8.56h-2.44V152h3.27L587.71,165h0.07q0-.26-0.09-1.89t-0.07-2.54V152h2.47v16.46Z"/></svg>